<?xml version="1.0" standalone="no"?>
<!DOCTYPE svg PUBLIC "-//W3C//DTD SVG 20010904//EN"
 "http://www.w3.org/TR/2001/REC-SVG-20010904/DTD/svg10.dtd">
<svg version="1.0" xmlns="http://www.w3.org/2000/svg"
 width="118.000000pt" height="118.000000pt" viewBox="0 0 118.000000 118.000000"
 preserveAspectRatio="xMidYMid meet">
<metadata>
Created by potrace 1.14, written by Peter Selinger 2001-2017
</metadata>
<g transform="translate(0.000000,118.000000) scale(0.100000,-0.100000)"
fill="#000000" stroke="none">
<path d="M218 1022 c-53 -32 -99 -59 -102 -63 -5 -5 38 -32 164 -102 25 -14
85 -48 133 -76 49 -28 93 -51 98 -51 5 0 9 -3 9 -7 0 -9 48 -33 64 -33 5 0 54
25 109 56 81 46 97 59 86 69 -15 13 -455 266 -461 264 -2 0 -47 -26 -100 -57z"/>
<path d="M741 1022 c-56 -31 -100 -61 -98 -67 2 -5 48 -36 102 -67 l99 -57 66
36 c36 21 82 46 102 58 21 11 38 23 38 26 0 4 -47 33 -104 67 l-104 60 -101
-56z"/>
<path d="M85 898 c-2 -7 -3 -130 -2 -273 l2 -260 100 -57 c55 -32 103 -58 107
-58 5 0 8 63 8 140 0 77 4 140 8 140 5 0 50 -24 101 -52 121 -69 142 -80 146
-76 4 4 7 77 6 164 l-1 72 -47 29 c-27 17 -122 72 -213 123 -91 51 -175 99
-188 107 -18 11 -23 11 -27 1z"/>
<path d="M970 850 c-47 -28 -90 -56 -95 -64 -7 -9 -11 -71 -10 -156 l1 -141
-31 -18 c-16 -10 -50 -30 -75 -44 -114 -63 -140 -79 -147 -90 -11 -17 -12
-237 -2 -237 5 0 112 59 239 132 l229 132 3 230 c3 265 1 306 -15 305 -7 0
-50 -22 -97 -49z"/>
<path d="M785 742 c-16 -10 -57 -33 -90 -52 -95 -52 -91 -44 -89 -172 1 -62 3
-116 3 -120 1 -3 48 21 106 54 l105 61 0 123 c0 68 -1 124 -2 124 -2 0 -16 -8
-33 -18z"/>
<path d="M345 447 c-3 -7 -4 -62 -3 -123 l3 -109 100 -57 c55 -32 103 -58 107
-58 5 0 8 54 8 119 l0 120 -97 57 c-54 31 -101 59 -106 61 -4 2 -10 -2 -12
-10z"/>
</g>
</svg>
